<?xml version="1.0" encoding="UTF-8"?>
<svg
  id="_레이어_2" data-name="레이어 2" xmlns="http://www.w3.org/2000/svg" viewBox="0 0 150.62 139.66"
  class="bear"
>
  <defs>
    <style>
      .bear .cls-1 {
        fill: none;
        stroke-linecap: round;
        stroke-linejoin: round;
        stroke-width: 2px;
      }

      .bear cls-1, .cls-2 {
        stroke: #000;
      }

      .bear .cls-2 {
        fill: #ef7e25;
      }

      .bear .cls-2, .cls-3 {
        stroke-miterlimit: 10;
      }

      .bear .cls-3 {
        fill: #300;
        stroke: #300;
      }

      .bear .cls-4 {
        fill: #630;
        stroke-width: 0px;
      }
    </style>
  </defs>
  <g id="_레이어_3" data-name="레이어 3">
    <path class="cls-2" d="m31.8,134c.11.38,1.02,3.41,4.12,4.67,2.49,1.01,4.72.2,5.21,0,.37-2.65.73-5.31,1.1-7.96-1.83-.55-3.66-1.1-5.49-1.65-1.65,1.65-3.29,3.29-4.94,4.94Z"/>
    <path class="cls-2" d="m56.5,16.81c-1.29-2.45-5.71-10.1-15.1-14-1.62-.67-14.7-5.85-26.35,1.92-1.54,1.03-10.05,6.71-11.25,17.57-1.41,12.79,8.61,21.1,9.33,21.68-3.95,5.4-8.71,13.61-10.98,24.43-1.21,5.77-4.32,20.63,3.29,35.13,3.95,7.54,9.09,11.71,14.27,15.92,21.61,17.56,46.4,18.28,53.52,18.39,8.38.13,14.22.21,21.41-2.74,18.74-7.71,25.48-27.45,26.62-31.01,2.44-7.63,2.63-14.29,2.47-18.39,1.22.05,14.8.38,22.23-10.15,4.34-6.15,4.2-12.62,4.12-14.82-.32-8.94-5.46-19.19-15.64-23.6-11.81-5.12-22.68.95-23.88,1.65-4.07-4.39-11.7-11.48-23.33-16.47-12.99-5.58-24.58-5.8-30.74-5.49Z"/>
    <path class="cls-3" d="m46.35,63.47c-2.71.81-4.58,3.17-4.67,5.76-.11,3.39,2.86,6.4,6.04,6.31,3.7-.11,6.64-4.38,5.49-7.96-.83-2.59-3.68-4.41-6.86-4.12Z"/>
    <path class="cls-3" d="m78.18,75.27c-3.38,1.19-5.05,5.27-3.57,8.51,1.3,2.84,4.71,4.34,7.68,3.29,3.38-1.19,5.05-5.27,3.57-8.51-1.3-2.84-4.71-4.34-7.68-3.29Z"/>
    <path class="cls-3" d="m61.44,81.85c-3.3-1.32-8.08-.79-9.06,1.65-.93,2.32,1.86,5.7,4.67,7.14,3.56,1.82,8.83,1.35,9.88-1.1,1.01-2.35-2-6.29-5.49-7.68Z"/>
    <path class="cls-1" d="m63.93,103.84c-1.13-.15-2.23-.5-3.23-1.04-2.77-1.51-4.25-4.25-4.11-7.01-.99.96-2.23,1.72-3.63,2.19-2.22.75-4.56.7-6.43-.13-3.02-1.35-4.78-4.81-4.18-8.24l.98.16c-.54,3.07.99,6.15,3.63,7.33,1.6.72,3.64.75,5.6.09,1.89-.64,3.44-1.84,4.43-3.4.1-.26.21-.52.33-.78.28-.66.58-1.29.87-1.9.31.1.62.19.94.29-.19.61-.44,1.29-.8,2-.13.26-.27.51-.41.74-1.01,2.97.28,6.3,3.3,7.94,2.77,1.51,6.45,1.29,9.15-.53l.64.67c-2.06,1.39-4.64,1.94-7.06,1.61Z"/>
    <path class="cls-3" d="m48.79,99.4c-.85,2.66.44,5.39,2.77,6.46,2.81,1.29,6.77-.04,8.1-3.25-.82-.82-1.76-1.91-2.63-3.3-.72-1.14-1.21-2.22-1.56-3.13.04-.28.13-.64.37-1.01.52-.8,1.43-1.1,1.43-1.1s-.91.29-1.43,1.1c-.24.36-.33.73-.37,1.01-.51.6-1.55,1.67-3.26,2.42-1.39.61-2.65.76-3.42.8Z"/>
    <path class="cls-4" d="m40.68,19.69c-4.65-6.34-13.61-7.15-18.86-2.5-4.68,4.14-5.51,11.81-1.34,17.36,6.73-4.95,13.46-9.9,20.19-14.85Z"/>
    <path class="cls-4" d="m118.95,49.56c7.15-2.37,14.72,1.55,16.86,8.01,2.3,6.95-2.23,15.17-10.18,16.86-2.23-8.29-4.45-16.58-6.68-24.87Z"/>
  </g>
</svg>