<?xml version="1.0" encoding="UTF-8"?>
<svg
  id="_레이어_2" data-name="레이어 2" xmlns="http://www.w3.org/2000/svg" viewBox="0 0 176.77 187.47"
  class="heart"
>
  <defs>
    <style>
      .heart .cls-1 {
        fill: #ff3e39;
        stroke: #000;
        stroke-miterlimit: 10;
      }
    </style>
  </defs>
  <g id="_레이어_2-2" data-name="레이어 2">
    <path class="cls-1" d="m63.81,173.34c.09,4.28.19,8.56.28,12.84-1.1.41-3.6,1.17-6.7.56-4.2-.83-6.6-3.64-7.26-4.47,2.07-3.67,4.14-7.35,6.21-11.02,2.49.7,4.98,1.4,7.47,2.09Z"/>
    <path class="cls-1" d="m97.23,27.88c3.13-1.94,18.81-11.23,39.07-6.7,2.62.59,20.64,4.91,31.81,21.77,16.24,24.5,3.66,53.79,1.12,59.72-2.84,6.62-8.58,17.3-24.56,31.26-12.81,11.19-39.82,31.14-84.84,40.19-8.93-8.19-19.2-19.03-29.02-32.93-9.81-13.89-22.95-32.9-27.91-60.28-2.22-12.23-4.52-25.9,1.12-41.86,2-5.66,7.21-19.8,21.77-29.58C38.21,1.11,50.52.59,53.13.53c4.16-.11,15-.23,26.23,6.7,11.26,6.95,16.19,16.84,17.86,20.65Z"/>
  </g>
</svg>